<svg xmlns="http://www.w3.org/2000/svg" version="1.1" xmlns:xlink="http://www.w3.org/1999/xlink" xmlns:svgjs="http://svgjs.dev/svgjs" viewBox="0 0 1920 1080"><rect width="1920" height="1080" fill="#99c1f1"></rect><g transform="matrix(0.5750000000000001,0.9959292143521044,-0.9959292143521044,0.5750000000000001,930.162546166396,-689.9436560547106)"><path d="M0,-1080C-4.8316970331035,-1015.3486273597287,-30.269711360013684,-848.0545924677365,-28.990182198621,-692.0917641583721C-27.710653037228315,-536.1289358490078,-5.423722124392322,-331.50254291540324,7.677174968356098,-144.22303014381413C20.778072061104517,43.05648262777498,63.1132649500343,289.6879903336413,49.615200357869526,431.5853124711625C36.11713576570475,573.4826346086837,-80.09059032029467,569.9227274611881,-73.31121258463253,707.1609026813129C-66.53183484897039,844.3990779014377,72.15010279516139,1092.4247310993835,90.29146677184238,1255.0143637919116C108.43283074852337,1417.6039964844397,50.585549070760514,1531.8677594684661,35.53697127545345,1682.6986988364808C20.488393480146392,1833.5296382044955,5.922828545908909,2080.4497831394133,0,2160L 1920 2160 L 1920 -1080 Z" fill="url(&quot;#SvgjsLinearGradient1170&quot;)"></path><path d="M174.54545454545456,-1080C176.54809475210078,-998.9314046907286,203.21791815802874,-728.609872725808,186.5612957853319,-593.5884281443715C169.90467341263508,-458.566983562935,96.7717139568222,-417.81092087090786,74.60572030927366,-269.8713325113809C52.43972666172513,-121.93174415185393,52.86619925824371,140.16587837542167,53.56533390004071,294.0491020127903C54.264468541837715,447.9323256501589,51.82175053225539,504.3414818059524,78.80052816005568,653.4280093128309C105.77930578785596,802.5145368197094,194.28423145332124,1010.1003707791289,215.43799966684242,1188.5682670540614C236.5917678803636,1367.036163328994,212.53856162808063,1562.330098138103,205.72313744118264,1724.2353869624262C198.90771325428466,1886.1406757867494,179.7417350280759,2087.3725644937376,174.54545454545456,2160L 1920 2160 L 1920 -1080 Z" fill="url(&quot;#SvgjsLinearGradient1171&quot;)"></path><path d="M349.0909090909091,-1080C356.1822736235429,-1005.4925731611255,392.5889135908052,-796.0116624435277,391.63909628671195,-632.9554389667529C390.6892789826187,-469.89921548997813,336.6582682113762,-307.23021960669996,343.39200526634966,-101.66265913935126C350.1257423213231,103.90490132799741,441.87461731379733,407.33084979392754,432.0415186165527,600.4499238373392C422.2084199193081,793.5689978807508,292.34916897312286,906.2342655085167,284.39341308288175,1057.0517851211184C276.43765719264064,1207.8693047337201,373.5240672737683,1321.5303390331358,384.3069832751062,1505.3550415129494C395.08989927644404,1689.179743992763,354.9602547882753,2050.892506918825,349.0909090909091,2160L 1920 2160 L 1920 -1080 Z" fill="url(&quot;#SvgjsLinearGradient1172&quot;)"></path><path d="M523.6363636363636,-1080C544.6506087069928,-986.1678621699641,662.0784978564436,-668.0039379920566,649.7218340601388,-517.0071730197849C637.365170263834,-366.0104080475131,454.0902193183732,-298.93326012242585,449.49638085853474,-174.01941016636962C444.90254239869626,-49.105560210313385,604.4810493222881,71.0945096433824,622.1588033011078,232.47592671655258C639.8365572799275,393.8573437897228,591.6683962394263,631.707843830821,555.5629047314529,794.2690922726515C519.4574132234795,956.830340714482,424.08290705541623,1074.1825775859152,405.5258542532673,1207.8434173675355C386.9688014511184,1341.5042571491558,424.5355030213768,1437.5413671902954,444.22058791855954,1596.2341309623728C463.90567281574226,1754.9268947344501,510.40040101672963,2066.0390218270622,523.6363636363636,2160L 1920 2160 L 1920 -1080 Z" fill="url(&quot;#SvgjsLinearGradient1173&quot;)"></path><path d="M698.1818181818182,-1080C698.5355561469803,-958.7178204578369,707.662869453688,-618.7023706030569,700.3042459727908,-352.3069227470212C692.9456224918936,-85.91147489098546,662.1532889420935,253.36223188549604,654.0300772964347,518.3726871362144C645.9068656507759,783.3831423869327,644.2063526179411,964.1512566133246,651.5649760988383,1237.7558087572888C658.9235995797355,1511.360360901253,690.4123445013216,2006.2926347928815,698.1818181818182,2160L 1920 2160 L 1920 -1080 Z" fill="url(&quot;#SvgjsLinearGradient1174&quot;)"></path><path d="M872.7272727272727,-1080C852.4299034352782,-951.9932915065928,759.444442765475,-524.1550684274688,750.9430569753058,-311.9597490395567C742.4416711851367,-99.76442965164458,787.9272883087542,16.682620667104317,821.7189579862578,193.17191632747273C855.5106276637614,369.66121198784117,927.9460331219034,536.1832354610283,953.6930750403275,746.9760249226538C979.4401169587516,957.7688143842793,989.6955098823119,1222.4246572510012,976.2012094968027,1457.9286530972256C962.7069091112935,1693.43264894345,889.9729288555277,2042.9881088495376,872.7272727272727,2160L 1920 2160 L 1920 -1080 Z" fill="url(&quot;#SvgjsLinearGradient1175&quot;)"></path><path d="M1047.2727272727273,-1080C1031.7882639229413,-959.6522627151646,963.8599889476286,-554.7350023529157,954.3659471740118,-357.9135762909875C944.871905400395,-161.09215022905934,981.6873764770411,-112.51939891171054,990.3084766310262,100.92855637156921C998.9295767850114,314.37651165484897,1015.1838623883584,673.9828354101679,1006.0925480979225,922.7741554086911C997.0012338074866,1171.565475407214,928.8972276926099,1387.4721689308228,935.7605908884108,1593.6764763627077C942.6239540842116,1799.8807837945926,1028.6873712086744,2065.612746060451,1047.2727272727273,2160L 1920 2160 L 1920 -1080 Z" fill="url(&quot;#SvgjsLinearGradient1176&quot;)"></path><path d="M1221.8181818181818,-1080C1237.2478798264235,-969.7312741811917,1333.4539563435794,-586.2112656515189,1314.396369867632,-418.3876450871499C1295.3387833916847,-250.56402452278087,1140.9270839663138,-222.57178321574438,1107.472662962498,-73.05827661378578C1074.018241958682,76.45522998817282,1098.2381243349841,289.29699721696306,1113.6698438447363,478.69339452460156C1129.1015633544885,668.08979183224,1177.2743622898693,853.316698625906,1200.0629800210113,1063.320107232045C1222.8515977521533,1273.323515838184,1246.7756832653927,1555.933864033443,1250.4015502315879,1738.7138461614354C1254.027417197783,1921.493828289428,1226.5820765537494,2089.785641026906,1221.8181818181818,2160L 1920 2160 L 1920 -1080 Z" fill="url(&quot;#SvgjsLinearGradient1177&quot;)"></path><path d="M1396.3636363636365,-1080C1409.4676010053804,-1031.450247352304,1471.4332000328427,-916.1390179253927,1474.9874242141004,-788.7014841138227C1478.5416483953582,-661.2639503022527,1422.0137374328447,-480.47643895096985,1417.6889814511828,-315.3747971305802C1413.364225469521,-150.27315531019056,1457.0816959557458,58.03704086898324,1449.038888324129,201.908366808515C1440.9960806925121,345.7796927480468,1378.7215120277665,418.7132410752349,1369.4321356614823,547.8531585066105C1360.1427592951982,676.9930759379861,1402.003140452543,829.836737513161,1393.3026301264238,976.7478713967687C1384.6021198003045,1123.6590052803763,1296.0168375587898,1291.9045662070816,1317.2290737047667,1429.3199618082567C1338.4413098507437,1566.7353574094318,1507.3869532258075,1679.4602386385284,1520.5760470022858,1801.240245003819C1533.7651407787641,1923.0202513691095,1417.0657048034113,2100.2067075006366,1396.3636363636365,2160L 1920 2160 L 1920 -1080 Z" fill="url(&quot;#SvgjsLinearGradient1178&quot;)"></path><path d="M1570.909090909091,-1080C1588.8155049073916,-1005.2581583266057,1657.4768343724174,-758.6989294695228,1678.3475748988951,-631.5489499596339C1699.2183154253728,-504.39897044974504,1696.8194835966417,-451.6247947594661,1696.1335340679566,-317.1001229406667C1695.4475845392715,-182.5754511218673,1685.934225531972,11.98393941107642,1674.231877726784,175.59908095316266C1662.529529921596,339.2142224952489,1624.7814590875134,519.1066218846136,1625.9194472368285,664.5907263118506C1627.0574353861437,810.0748307390877,1679.4792069090677,940.27470095325,1681.0598066226744,1048.5037075165849C1682.640406336281,1156.7327140799198,1674.4872581370705,1207.534682526692,1635.4030455184695,1313.9647656918603C1596.3188328998685,1420.3948488570286,1457.3035233459655,1546.078334122904,1446.5545309110692,1687.084206507594C1435.8055384761728,1828.090078892284,1550.1833309094206,2081.180701084599,1570.909090909091,2160L 1920 2160 L 1920 -1080 Z" fill="url(&quot;#SvgjsLinearGradient1179&quot;)"></path><path d="M1745.4545454545455,-1080C1727.5266967262176,-999.7233142942755,1629.1268395965228,-791.4359503062103,1637.887453084578,-598.3398857656533C1646.6480665726333,-405.2438212250963,1788.4928864956066,-91.26795057634635,1798.0182263828774,78.57638724334225C1807.5435662701482,248.42072506303086,1714.1085023612056,236.24822772155008,1695.0394924082022,420.7261411524783C1675.9704824551989,605.2040545834066,1659.4381456990864,983.2296584791593,1683.6041666648566,1185.4438678289116C1707.7701876306269,1387.658077178664,1829.7272217378754,1471.5853752224773,1840.0356182028236,1634.011397250992C1850.3440146677717,1796.437419279507,1761.2180575792586,2072.3352328751653,1745.4545454545455,2160L 1920 2160 L 1920 -1080 Z" fill="url(&quot;#SvgjsLinearGradient1180&quot;)"></path></g><defs><linearGradient x1="0.1" y1="0" x2="0" y2="1" id="SvgjsLinearGradient1170"><stop stop-color="#99c1f1" offset="0"></stop><stop stop-color="#99d0f1" offset="0"></stop></linearGradient><linearGradient x1="0.1" y1="0" x2="0" y2="1" id="SvgjsLinearGradient1171"><stop stop-color="#a4c8f2" offset="0"></stop><stop stop-color="#a4d5f2" offset="0.09090909090909091"></stop></linearGradient><linearGradient x1="0.1" y1="0" x2="0" y2="1" id="SvgjsLinearGradient1172"><stop stop-color="#afcef4" offset="0"></stop><stop stop-color="#afd9f4" offset="0.18181818181818182"></stop></linearGradient><linearGradient x1="0.1" y1="0" x2="0" y2="1" id="SvgjsLinearGradient1173"><stop stop-color="#bad5f6" offset="0"></stop><stop stop-color="#badff6" offset="0.2727272727272727"></stop></linearGradient><linearGradient x1="0.1" y1="0" x2="0" y2="1" id="SvgjsLinearGradient1174"><stop stop-color="#c5dcf7" offset="0"></stop><stop stop-color="#c5e4f7" offset="0.36363636363636365"></stop></linearGradient><linearGradient x1="0.1" y1="0" x2="0" y2="1" id="SvgjsLinearGradient1175"><stop stop-color="#d0e2f9" offset="0"></stop><stop stop-color="#d0e9f9" offset="0.45454545454545453"></stop></linearGradient><linearGradient x1="0.1" y1="0" x2="0" y2="1" id="SvgjsLinearGradient1176"><stop stop-color="#dbe9fa" offset="0"></stop><stop stop-color="#dbeefa" offset="0.5454545454545454"></stop></linearGradient><linearGradient x1="0.1" y1="0" x2="0" y2="1" id="SvgjsLinearGradient1177"><stop stop-color="#e6f0fc" offset="0"></stop><stop stop-color="#e6f4fc" offset="0.6363636363636364"></stop></linearGradient><linearGradient x1="0.1" y1="0" x2="0" y2="1" id="SvgjsLinearGradient1178"><stop stop-color="#f1f6fd" offset="0"></stop><stop stop-color="#f1f8fd" offset="0.7272727272727273"></stop></linearGradient><linearGradient x1="0.1" y1="0" x2="0" y2="1" id="SvgjsLinearGradient1179"><stop stop-color="#fcfdff" offset="0"></stop><stop stop-color="#fcfdff" offset="0.8181818181818182"></stop></linearGradient><linearGradient x1="0.1" y1="0" x2="0" y2="1" id="SvgjsLinearGradient1180"><stop stop-color="#ffffff" offset="0"></stop><stop stop-color="#ffffff" offset="0.9090909090909091"></stop></linearGradient></defs></svg>